<svg width="226" height="51" viewBox="0 0 226 51" fill="none" xmlns="http://www.w3.org/2000/svg">
<path d="M43.5313 7.46871C38.715 2.6524 32.3113 0 25.5 0C18.6887 0 12.285 2.6524 7.46871 7.46871C2.6524 12.285 0 18.6887 0 25.5C0 32.3113 2.6525 38.7149 7.46871 43.5313C12.2849 48.3477 18.6887 51 25.5 51C32.3113 51 38.715 48.3476 43.5313 43.5313C48.3476 38.715 51 32.3113 51 25.5C51 18.6887 48.3475 12.2851 43.5313 7.46871Z" fill="#33CC95"/>
<path d="M20.396 25.276H24.232V27.124L19.388 27.18L18.632 28.636V29.728H24.232V31.604H18.632V36H16.084V31.604H10.484V29.728H16.084V28.636L15.3 27.18L10.484 27.124V25.276H14.32L9.7 16.484H12.556L17.344 26.34L22.132 16.484H24.988L20.396 25.276ZM30.9443 38.744V36H28.3683V16.008H30.9443V13.18H32.7363V16.008H32.9603C33.595 16.008 34.1737 16.036 34.6963 16.092V13.18H36.4883V16.372C37.6643 16.6707 38.551 17.1933 39.1483 17.94C39.7643 18.668 40.0723 19.676 40.0723 20.964C40.0723 22.14 39.783 23.12 39.2043 23.904C38.6443 24.6693 37.823 25.164 36.7403 25.388V25.528C37.487 25.6587 38.1497 25.9013 38.7283 26.256C39.3257 26.6107 39.7923 27.1147 40.1283 27.768C40.483 28.4213 40.6603 29.2707 40.6603 30.316C40.6603 31.772 40.287 32.9667 39.5403 33.9C38.8123 34.8147 37.795 35.4307 36.4883 35.748V38.744H34.6963V36C34.5657 36 34.4257 36 34.2763 36H32.7363V38.744H30.9443ZM33.4643 24.52C34.995 24.52 36.0403 24.2493 36.6003 23.708C37.179 23.148 37.4683 22.3267 37.4683 21.244C37.4683 20.1427 37.1137 19.3587 36.4043 18.892C35.7137 18.4067 34.603 18.164 33.0723 18.164H30.8883V24.52H33.4643ZM30.8883 26.62V33.872H33.8003C35.3497 33.872 36.4323 33.5267 37.0483 32.836C37.6643 32.1453 37.9723 31.24 37.9723 30.12C37.9723 29.0747 37.655 28.2347 37.0203 27.6C36.3857 26.9467 35.247 26.62 33.6043 26.62H30.8883Z" fill="white"/>
<path d="M82.376 17.704L74.144 37.288H70.568L73.448 30.664L68.12 17.704H71.888L75.32 26.992L78.8 17.704H82.376ZM96.7393 17.704V31H93.3553V29.32C92.9233 29.896 92.3553 30.352 91.6513 30.688C90.9633 31.008 90.2113 31.168 89.3953 31.168C88.3553 31.168 87.4353 30.952 86.6353 30.52C85.8353 30.072 85.2033 29.424 84.7393 28.576C84.2913 27.712 84.0673 26.688 84.0673 25.504V17.704H87.4273V25.024C87.4273 26.08 87.6913 26.896 88.2193 27.472C88.7473 28.032 89.4673 28.312 90.3793 28.312C91.3073 28.312 92.0353 28.032 92.5633 27.472C93.0913 26.896 93.3553 26.08 93.3553 25.024V17.704H96.7393ZM103.414 19.648C103.846 19.008 104.438 18.488 105.19 18.088C105.958 17.688 106.83 17.488 107.806 17.488C108.942 17.488 109.966 17.768 110.878 18.328C111.806 18.888 112.534 19.688 113.062 20.728C113.606 21.752 113.878 22.944 113.878 24.304C113.878 25.664 113.606 26.872 113.062 27.928C112.534 28.968 111.806 29.776 110.878 30.352C109.966 30.928 108.942 31.216 107.806 31.216C106.814 31.216 105.942 31.024 105.19 30.64C104.454 30.24 103.862 29.728 103.414 29.104V31H100.054V13.24H103.414V19.648ZM110.446 24.304C110.446 23.504 110.278 22.816 109.942 22.24C109.622 21.648 109.19 21.2 108.646 20.896C108.118 20.592 107.542 20.44 106.918 20.44C106.31 20.44 105.734 20.6 105.19 20.92C104.662 21.224 104.23 21.672 103.894 22.264C103.574 22.856 103.414 23.552 103.414 24.352C103.414 25.152 103.574 25.848 103.894 26.44C104.23 27.032 104.662 27.488 105.19 27.808C105.734 28.112 106.31 28.264 106.918 28.264C107.542 28.264 108.118 28.104 108.646 27.784C109.19 27.464 109.622 27.008 109.942 26.416C110.278 25.824 110.446 25.12 110.446 24.304ZM118.024 16.12C117.432 16.12 116.936 15.936 116.536 15.568C116.152 15.184 115.96 14.712 115.96 14.152C115.96 13.592 116.152 13.128 116.536 12.76C116.936 12.376 117.432 12.184 118.024 12.184C118.616 12.184 119.104 12.376 119.488 12.76C119.888 13.128 120.088 13.592 120.088 14.152C120.088 14.712 119.888 15.184 119.488 15.568C119.104 15.936 118.616 16.12 118.024 16.12ZM119.68 17.704V31H116.32V17.704H119.68ZM145.231 17.512C146.863 17.512 148.175 18.016 149.167 19.024C150.175 20.016 150.679 21.408 150.679 23.2V31H147.319V23.656C147.319 22.616 147.055 21.824 146.527 21.28C145.999 20.72 145.279 20.44 144.367 20.44C143.455 20.44 142.727 20.72 142.183 21.28C141.655 21.824 141.391 22.616 141.391 23.656V31H138.031V23.656C138.031 22.616 137.767 21.824 137.239 21.28C136.711 20.72 135.991 20.44 135.079 20.44C134.151 20.44 133.415 20.72 132.871 21.28C132.343 21.824 132.079 22.616 132.079 23.656V31H128.719V17.704H132.079V19.312C132.511 18.752 133.063 18.312 133.735 17.992C134.423 17.672 135.175 17.512 135.991 17.512C137.031 17.512 137.959 17.736 138.775 18.184C139.591 18.616 140.223 19.24 140.671 20.056C141.103 19.288 141.727 18.672 142.543 18.208C143.375 17.744 144.271 17.512 145.231 17.512ZM159.771 31.216C158.491 31.216 157.339 30.936 156.315 30.376C155.291 29.8 154.483 28.992 153.891 27.952C153.315 26.912 153.027 25.712 153.027 24.352C153.027 22.992 153.323 21.792 153.915 20.752C154.523 19.712 155.347 18.912 156.387 18.352C157.427 17.776 158.587 17.488 159.867 17.488C161.147 17.488 162.307 17.776 163.347 18.352C164.387 18.912 165.203 19.712 165.795 20.752C166.403 21.792 166.707 22.992 166.707 24.352C166.707 25.712 166.395 26.912 165.771 27.952C165.163 28.992 164.331 29.8 163.275 30.376C162.235 30.936 161.067 31.216 159.771 31.216ZM159.771 28.288C160.379 28.288 160.947 28.144 161.475 27.856C162.019 27.552 162.451 27.104 162.771 26.512C163.091 25.92 163.251 25.2 163.251 24.352C163.251 23.088 162.915 22.12 162.243 21.448C161.587 20.76 160.779 20.416 159.819 20.416C158.859 20.416 158.051 20.76 157.395 21.448C156.755 22.12 156.435 23.088 156.435 24.352C156.435 25.616 156.747 26.592 157.371 27.28C158.011 27.952 158.811 28.288 159.771 28.288ZM176.54 17.512C178.124 17.512 179.404 18.016 180.38 19.024C181.356 20.016 181.844 21.408 181.844 23.2V31H178.484V23.656C178.484 22.6 178.22 21.792 177.692 21.232C177.164 20.656 176.444 20.368 175.532 20.368C174.604 20.368 173.868 20.656 173.324 21.232C172.796 21.792 172.532 22.6 172.532 23.656V31H169.172V17.704H172.532V19.36C172.98 18.784 173.548 18.336 174.236 18.016C174.94 17.68 175.708 17.512 176.54 17.512ZM197.399 24.064C197.399 24.544 197.367 24.976 197.303 25.36H187.583C187.663 26.32 187.999 27.072 188.591 27.616C189.183 28.16 189.911 28.432 190.775 28.432C192.023 28.432 192.911 27.896 193.439 26.824H197.063C196.679 28.104 195.943 29.16 194.855 29.992C193.767 30.808 192.431 31.216 190.847 31.216C189.567 31.216 188.415 30.936 187.391 30.376C186.383 29.8 185.591 28.992 185.015 27.952C184.455 26.912 184.175 25.712 184.175 24.352C184.175 22.976 184.455 21.768 185.015 20.728C185.575 19.688 186.359 18.888 187.367 18.328C188.375 17.768 189.535 17.488 190.847 17.488C192.111 17.488 193.239 17.76 194.231 18.304C195.239 18.848 196.015 19.624 196.559 20.632C197.119 21.624 197.399 22.768 197.399 24.064ZM193.919 23.104C193.903 22.24 193.591 21.552 192.983 21.04C192.375 20.512 191.631 20.248 190.751 20.248C189.919 20.248 189.215 20.504 188.639 21.016C188.079 21.512 187.735 22.208 187.607 23.104H193.919ZM212.571 17.704L204.339 37.288H200.763L203.643 30.664L198.315 17.704H202.083L205.515 26.992L208.995 17.704H212.571Z" fill="white"/>
</svg>
